/* XPM */
static char * wall_xpm[] = {
"20 20 333 2",
"  	c #FFFFFF",
". 	c #1B2823",
"+ 	c #165929",
"@ 	c #223A1E",
"# 	c #000000",
"$ 	c #0C441C",
"% 	c #4A8E18",
"& 	c #62B114",
"* 	c #3D8024",
"= 	c #18431F",
"- 	c #15361B",
"; 	c #316D2C",
"> 	c #193121",
", 	c #2B871A",
"' 	c #580035",
") 	c #13261D",
"! 	c #15281E",
"~ 	c #000020",
"{ 	c #325B1F",
"] 	c #155528",
"^ 	c #277B25",
"/ 	c #3D8E25",
"( 	c #94D422",
"_ 	c #409815",
": 	c #21741F",
"< 	c #70BF14",
"[ 	c #2B7D1A",
"} 	c #28671C",
"| 	c #36751B",
"1 	c #58A116",
"2 	c #216F1A",
"3 	c #122D1D",
"4 	c #0E3F28",
"5 	c #54A41A",
"6 	c #2A871F",
"7 	c #4C9B1D",
"8 	c #6EAE26",
"9 	c #83BD28",
"0 	c #73A826",
"a 	c #60AA1E",
"b 	c #358717",
"c 	c #99C92E",
"d 	c #57A31A",
"e 	c #378722",
"f 	c #3D8919",
"g 	c #1C4C1E",
"h 	c #0B1E15",
"i 	c #16251C",
"j 	c #155128",
"k 	c #165D28",
"l 	c #205625",
"m 	c #358F1E",
"n 	c #3E8F25",
"o 	c #7ABC22",
"p 	c #5BA619",
"q 	c #609E20",
"r 	c #317D1A",
"s 	c #379316",
"t 	c #73B623",
"u 	c #207523",
"v 	c #4FA516",
"w 	c #428821",
"x 	c #35753A",
"y 	c #244D37",
"z 	c #251E37",
"A 	c #1B5C23",
"B 	c #419720",
"C 	c #65B714",
"D 	c #409121",
"E 	c #7DC718",
"F 	c #41921C",
"G 	c #73BA19",
"H 	c #68B21E",
"I 	c #9BD923",
"J 	c #207B22",
"K 	c #2B9018",
"L 	c #358D1E",
"M 	c #85CB1C",
"N 	c #3D9023",
"O 	c #2D6E35",
"P 	c #5FB11A",
"Q 	c #307133",
"R 	c #261D30",
"S 	c #0C562E",
"T 	c #40941C",
"U 	c #4B991C",
"V 	c #378F23",
"W 	c #4E9E21",
"X 	c #A0D92A",
"Y 	c #5AA11E",
"Z 	c #73B321",
"` 	c #8CCF1E",
" .	c #3A9321",
"..	c #99D723",
"+.	c #318617",
"@.	c #5B9D30",
"#.	c #286D3A",
"$.	c #45971E",
"%.	c #36742F",
"&.	c #529A20",
"*.	c #242A41",
"=.	c #16021D",
"-.	c #1B7825",
";.	c #69BA14",
">.	c #479021",
",.	c #86C822",
"'.	c #67B217",
").	c #6DAF21",
"!.	c #53A218",
"~.	c #58A620",
"{.	c #9EDA27",
"].	c #3E8F1E",
"^.	c #6FAD25",
"/.	c #32802E",
"(.	c #8BC626",
"_.	c #296B32",
":.	c #50A222",
"<.	c #4F9333",
"[.	c #3C7F2B",
"}.	c #357339",
"|.	c #261D28",
"1.	c #166029",
"2.	c #318220",
"3.	c #71BD18",
"4.	c #75BD1C",
"5.	c #278919",
"6.	c #7CBE22",
"7.	c #8BC625",
"8.	c #72BC1C",
"9.	c #4FA518",
"0.	c #2C8319",
"a.	c #83BD2C",
"b.	c #6FA138",
"c.	c #468B34",
"d.	c #3D7A2D",
"e.	c #38852C",
"f.	c #2C5B3D",
"g.	c #51952A",
"h.	c #302D55",
"i.	c #414142",
"j.	c #09AF5A",
"k.	c #13622B",
"l.	c #3C8A1D",
"m.	c #5BAE12",
"n.	c #73B01F",
"o.	c #56A117",
"p.	c #8ACF1E",
"q.	c #52951D",
"r.	c #A6DA2C",
"s.	c #6CB81A",
"t.	c #23543F",
"u.	c #409723",
"v.	c #307634",
"w.	c #347235",
"x.	c #31822B",
"y.	c #253A46",
"z.	c #336D40",
"A.	c #2A5E41",
"B.	c #2D6E3C",
"C.	c #182F21",
"D.	c #276621",
"E.	c #338B17",
"F.	c #6AAA23",
"G.	c #92CC28",
"H.	c #529D18",
"I.	c #2A8121",
"J.	c #4E9C1D",
"K.	c #7BC717",
"L.	c #48911D",
"M.	c #52952E",
"N.	c #224743",
"O.	c #3D8329",
"P.	c #63B312",
"Q.	c #254340",
"R.	c #499A28",
"S.	c #3B9221",
"T.	c #255B36",
"U.	c #29573D",
"V.	c #252242",
"W.	c #182E21",
"X.	c #58A514",
"Y.	c #317A1C",
"Z.	c #237521",
"`.	c #75BB1D",
" +	c #4FA116",
".+	c #81BE20",
"++	c #3A821D",
"@+	c #217424",
"#+	c #6DA023",
"$+	c #7ABC25",
"%+	c #246130",
"&+	c #337D2B",
"*+	c #3E7638",
"=+	c #3B852C",
"-+	c #388326",
";+	c #55AC19",
">+	c #26672E",
",+	c #2D5A4D",
"'+	c #262241",
")+	c #182E20",
"!+	c #165C27",
"~+	c #419318",
"{+	c #60AE16",
"]+	c #24701C",
"^+	c #84BE25",
"/+	c #37871F",
"(+	c #5B9F1D",
"_+	c #50961C",
":+	c #76C019",
"<+	c #277E2F",
"[+	c #346635",
"}+	c #65B815",
"|+	c #357530",
"1+	c #52AA12",
"2+	c #27523C",
"3+	c #274B32",
"4+	c #2A633D",
"5+	c #3A3A71",
"6+	c #252240",
"7+	c #F1F5F2",
"8+	c #194C31",
"9+	c #51A519",
"0+	c #489426",
"a+	c #4F9720",
"b+	c #88CB1D",
"c+	c #30791C",
"d+	c #73B31D",
"e+	c #447F20",
"f+	c #317A29",
"g+	c #26523F",
"h+	c #3F8726",
"i+	c #297625",
"j+	c #24603A",
"k+	c #234E3D",
"l+	c #257430",
"m+	c #273A3F",
"n+	c #307C47",
"o+	c #2E4948",
"p+	c #241C28",
"q+	c #261D2E",
"r+	c #224E3D",
"s+	c #57A324",
"t+	c #286638",
"u+	c #266B2F",
"v+	c #4B892D",
"w+	c #336F31",
"x+	c #4E971D",
"y+	c #4D9D16",
"z+	c #256822",
"A+	c #5DB214",
"B+	c #264C36",
"C+	c #55AA19",
"D+	c #245637",
"E+	c #297936",
"F+	c #2A5747",
"G+	c #2B3156",
"H+	c #282B4A",
"I+	c #233244",
"J+	c #56AA17",
"K+	c #62AE1D",
"L+	c #2F683D",
"M+	c #75C412",
"N+	c #348D24",
"O+	c #286230",
"P+	c #439822",
"Q+	c #3F8129",
"R+	c #4C9B1F",
"S+	c #327139",
"T+	c #3A8233",
"U+	c #244B3D",
"V+	c #2B7F35",
"W+	c #2E2C4F",
"X+	c #31325D",
"Y+	c #2E2D50",
"Z+	c #322F42",
"`+	c #4E4E4F",
" @	c #261D3F",
".@	c #316D35",
"+@	c #26332C",
"@@	c #246136",
"#@	c #427D28",
"$@	c #216132",
"%@	c #1D6A2B",
"&@	c #214337",
"*@	c #46872C",
"=@	c #3A7735",
"-@	c #296C2B",
";@	c #428E3A",
">@	c #2C3B49",
",@	c #304E54",
"'@	c #333560",
")@	c #32333B",
"!@	c #282443",
"~@	c #321B3E",
"{@	c #403869",
"]@	c #151840",
"^@	c #22252C",
"/@	c #283448",
"(@	c #238921",
"_@	c #22632E",
":@	c #2A4E55",
"<@	c #46A118",
"[@	c #228821",
"}@	c #287031",
"|@	c #29842C",
"1@	c #2E2E53",
"2@	c #232132",
"3@	c #25203A",
"4@	c #4C4F55",
"5@	c #F0F0F0",
"6@	c #35263D",
"7@	c #262031",
"8@	c #233243",
"9@	c #252338",
"0@	c #2E2D58",
"a@	c #285C51",
"b@	c #1E5937",
"c@	c #262C42",
"d@	c #26313F",
"e@	c #251F31",
"f@	c #5B5100",
"g@	c #A7A7A7",
"h@	c #F8F8F8",
"i@	c #3D3F3C",
"j@	c #111300",
"k@	c #171916",
"l@	c #24244B",
"m@	c #262240",
"n@	c #1D2523",
"o@	c #55543A",
"p@	c #14180F",
"q@	c #515150",
"r@	c #FBFBFB",
"          . + @ #                       ",
"        $ % & * = - ; > , ' ) ! #       ",
"    ~ { ] ^ / ( _ : < [ } | 1 2 3       ",
"  # 4 5 6 7 8 9 0 a b c d e f g h       ",
"i j k l m n o p q r s t u v w x y z     ",
"A B C D E F G H I J K L M N O P Q R #   ",
"S T U V W X Y Z `  ...+.@.#.$.%.&.*.=.  ",
"-.;.>.,.'.).!.~.{.].^./.(._.:.<.[.}.|.  ",
"1.2.3.4.5.6.7.8.9.0.a.b.c.d.e.f.g.h.i.# ",
"j.k.l.m.n.o.p.q.r.s.t.u.v.w.x.y.z.A.B.# ",
"C.D.E.F.G.H.I.J.K.L.M.N.O.P.Q.R.S.T.U.V.",
"W.X.Y.Z.`. +.+++@+#+$+%+&+*+=+-+;+>+,+'+",
")+!+~+{+]+^+/+(+_+:+<+[+}+|+1+2+3+4+5+6+",
"7+8+9+0+a+b+c+d+e+f+g+h+i+j+k+l+m+n+o+p+",
"# q+r+s+t+u+v+w+x+y+z+A+B+C+D+E+F+G+H+# ",
"# I+J+K+L+M+N+O+P+Q+R+S+T+U+V+W+X+Y+Z+`+",
"   @.@+@@@#@$@%@&@*@=@-@;@>@,@'@)@!@~@  ",
"  # {@]@^@/@(@_@:@<@[@}@|@1@2@3@4@# 5@  ",
"        6@7@8@9@0@a@b@c@d@e@f@g@h@      ",
"          i@j@k@l@m@n@o@p@q@r@          "};
