/* XPM */
static char * gem_xpm[] = {
"32 32 366 2",
"  	c #FFFFFF",
". 	c #F3FDFF",
"+ 	c #646F81",
"@ 	c #001C45",
"# 	c #00264F",
"$ 	c #001138",
"% 	c #00143A",
"& 	c #00143B",
"* 	c #000E3B",
"= 	c #00003B",
"- 	c #001038",
"; 	c #F4FEFF",
"> 	c #646F82",
", 	c #DCF9FF",
"' 	c #032850",
") 	c #A6B3BB",
"! 	c #DDFAFF",
"~ 	c #CEF7FF",
"{ 	c #546D81",
"] 	c #001445",
"^ 	c #000000",
"/ 	c #00003A",
"( 	c #11487C",
"_ 	c #1E5B94",
": 	c #1F5E99",
"< 	c #2A6499",
"[ 	c #3A6F99",
"} 	c #417599",
"| 	c #205E99",
"1 	c #CFF8FF",
"2 	c #546D82",
"3 	c #CDF7FF",
"4 	c #1F5B95",
"5 	c #3283CD",
"6 	c #3890E1",
"7 	c #3991E2",
"8 	c #499BE1",
"9 	c #60ACE1",
"0 	c #6AB4E1",
"a 	c #6BB5E1",
"b 	c #8FB0BB",
"c 	c #CEF8FF",
"d 	c #2E5778",
"e 	c #3D7094",
"f 	c #4083BB",
"g 	c #419AEA",
"h 	c #47A8FF",
"i 	c #51AFFF",
"j 	c #62BAFF",
"k 	c #73C8FF",
"l 	c #7CCEFF",
"m 	c #7CCFFF",
"n 	c #51AEFF",
"o 	c #45A5FF",
"p 	c #3F97EA",
"q 	c #4082BB",
"r 	c #3F7194",
"s 	c #5FA3CD",
"t 	c #61B0EA",
"u 	c #50AAF9",
"v 	c #66BDFF",
"w 	c #79CDFF",
"x 	c #64BBFF",
"y 	c #4AA6FF",
"z 	c #49A2F9",
"A 	c #60ADEA",
"B 	c #90B0BB",
"C 	c #00274F",
"D 	c #2B5578",
"E 	c #5593BB",
"F 	c #6FBCEA",
"G 	c #73C7FF",
"H 	c #5CB5FF",
"I 	c #66BCFF",
"J 	c #6CC0FF",
"K 	c #6DC0FF",
"L 	c #6DC1FF",
"M 	c #62B7FF",
"N 	c #4AA5FF",
"O 	c #50AAFF",
"P 	c #6EC2FF",
"Q 	c #5594BB",
"R 	c #01274F",
"S 	c #78C9F9",
"T 	c #68BDFF",
"U 	c #58AFFF",
"V 	c #4EA6FF",
"W 	c #4DA5FF",
"X 	c #4DA6FF",
"Y 	c #49A4FF",
"Z 	c #42A2FF",
"` 	c #54AFFF",
" .	c #6FC4FF",
"..	c #70BCEA",
"+.	c #708B99",
"@.	c #2F5A7C",
"#.	c #3F7195",
"$.	c #7BCEFF",
"%.	c #78CCFF",
"&.	c #71C6FF",
"*.	c #72C1FF",
"=.	c #77BBFF",
"-.	c #71B3FF",
";.	c #5AAAFF",
">.	c #4BA5FF",
",.	c #4CA5FF",
"'.	c #48A3FF",
").	c #3D9CFF",
"!.	c #379AFF",
"~.	c #3C9EFF",
"{.	c #54AEFF",
"].	c #5FA3CE",
"^.	c #61B9FF",
"/.	c #7DC2FF",
"(.	c #A9DCFF",
"_.	c #ACDFFF",
":.	c #89CDFF",
"<.	c #63B9FF",
"[.	c #4DA9FF",
"}.	c #3A9EFF",
"|.	c #4FA9FF",
"1.	c #386D99",
"2.	c #5FA9E2",
"3.	c #71C4FF",
"4.	c #71C2FF",
"5.	c #7BC2FF",
"6.	c #9DD4FF",
"7.	c #C4F1FF",
"8.	c #C9F7FF",
"9.	c #ADE7FF",
"0.	c #92D8FF",
"a.	c #82D1FF",
"b.	c #7ACEFF",
"c.	c #79CCFF",
"d.	c #3EA1FF",
"e.	c #399CFF",
"f.	c #63B7FF",
"g.	c #71C5FF",
"h.	c #78CBFF",
"i.	c #265E99",
"j.	c #4393E3",
"k.	c #5DB3FF",
"l.	c #72C5FF",
"m.	c #AADEFF",
"n.	c #C5F1FF",
"o.	c #D1FBFF",
"p.	c #D3FDFF",
"q.	c #B5EBFF",
"r.	c #93D9FF",
"s.	c #52AEFF",
"t.	c #41A4FF",
"u.	c #3FA2FF",
"v.	c #41A1FF",
"w.	c #5CB2FF",
"x.	c #265F99",
"y.	c #57AEFF",
"z.	c #66BBFF",
"A.	c #71C0FF",
"B.	c #7DC3FF",
"C.	c #9DD5FF",
"D.	c #D6FFFF",
"E.	c #D7FFFF",
"F.	c #ACE6FF",
"G.	c #90D7FF",
"H.	c #7BCAFF",
"I.	c #50AEFF",
"J.	c #42A5FF",
"K.	c #41A5FF",
"L.	c #3A9CFF",
"M.	c #63B8FF",
"N.	c #67BBFF",
"O.	c #396E99",
"P.	c #64B9FF",
"Q.	c #AFE5FF",
"R.	c #7EC5FF",
"S.	c #44A7FF",
"T.	c #66BAFF",
"U.	c #3E7194",
"V.	c #62B0EA",
"W.	c #57ABF9",
"X.	c #A8DAFF",
"Y.	c #C4EFFF",
"Z.	c #D8FFFF",
"`.	c #BEEDFF",
" +	c #80C3FF",
".+	c #42A6FF",
"++	c #3EA4FF",
"@+	c #3A9DFF",
"#+	c #3598FF",
"$+	c #479EF9",
"%+	c #5FADEA",
"&+	c #305B7C",
"*+	c #4F8EBB",
"=+	c #64B1EA",
"-+	c #70BEFF",
";+	c #79BCFF",
">+	c #9BCEFF",
",+	c #BEECFF",
"'+	c #80C2FF",
")+	c #3498FF",
"!+	c #3195FF",
"~+	c #358CEA",
"{+	c #3D7EBB",
"]+	c #325D7C",
"^+	c #001C4B",
"/+	c #77BAFD",
"(+	c #A7D7F8",
"_+	c #BBE6F5",
":+	c #BCE6F5",
"<+	c #BCE7F8",
"[+	c #BCE8FC",
"}+	c #A7D7FC",
"|+	c #70B0F7",
"1+	c #3995F3",
"2+	c #3594F3",
"3+	c #3996F4",
"4+	c #3899F4",
"5+	c #379AF8",
"6+	c #3396FD",
"7+	c #3090F9",
"8+	c #2C87EA",
"9+	c #2576CD",
"0+	c #165394",
"a+	c #001A3A",
"b+	c #03284F",
"c+	c #2D5778",
"d+	c #6EBBF8",
"e+	c #72B1EB",
"f+	c #74ABE2",
"g+	c #74ABE1",
"h+	c #77AFEA",
"i+	c #79B5F8",
"j+	c #6CA9F7",
"k+	c #4787E6",
"l+	c #206FDC",
"m+	c #1D6EDC",
"n+	c #1F76DD",
"o+	c #2082E0",
"p+	c #258BEB",
"q+	c #2D91F8",
"r+	c #206BBB",
"s+	c #155294",
"t+	c #053E78",
"u+	c #022850",
"v+	c #374E67",
"w+	c #62AEE2",
"x+	c #4FA1E3",
"y+	c #3790DF",
"z+	c #1681D9",
"A+	c #007BD8",
"B+	c #0B7FDE",
"C+	c #1F87EA",
"D+	c #2C90F8",
"E+	c #2A87F3",
"F+	c #1669DD",
"G+	c #0052CE",
"H+	c #0051CD",
"I+	c #0054CE",
"J+	c #005BCF",
"K+	c #0B6BD5",
"L+	c #1B7FDE",
"M+	c #2387E3",
"N+	c #2884E2",
"O+	c #165395",
"P+	c #00254E",
"Q+	c #B4D9E2",
"R+	c #001646",
"S+	c #4F8DB7",
"T+	c #5AADED",
"U+	c #328FDF",
"V+	c #007EDE",
"W+	c #1686ED",
"X+	c #258EF8",
"Y+	c #2991FD",
"Z+	c #2485F3",
"`+	c #1267DC",
" @	c #0050CD",
".@	c #004FCD",
"+@	c #005ACF",
"@@	c #006AD2",
"#@	c #1A7EDE",
"$@	c #3092ED",
"%@	c #328DE1",
"&@	c #236EB8",
"*@	c #0D4178",
"=@	c #012246",
"-@	c #BCE2EA",
";@	c #334A64",
">@	c #3D7095",
",@	c #6EB3E1",
"'@	c #74AFE3",
")@	c #69A8EB",
"!@	c #4B9DF8",
"~@	c #3197FF",
"{@	c #2F94FF",
"]@	c #2986F3",
"^@	c #1668DC",
"/@	c #0A6BD5",
"(@	c #298BE3",
"_@	c #348FE2",
":@	c #1F5C95",
"<@	c #00224D",
"[@	c #607A8A",
"}@	c #516A80",
"|@	c #245479",
"1@	c #749EB7",
"2@	c #A6D0E2",
"3@	c #A6D7F8",
"4@	c #73B7FD",
"5@	c #3B9EFF",
"6@	c #2A86F3",
"7@	c #2974B8",
"8@	c #164979",
"9@	c #617A8B",
"0@	c #3E5670",
"a@	c #718B94",
"b@	c #A7C9CD",
"c@	c #AED9EA",
"d@	c #94CCF9",
"e@	c #74BAFF",
"f@	c #50A4FF",
"g@	c #2D8CF4",
"h@	c #1470DD",
"i@	c #1A7FDE",
"j@	c #576C78",
"k@	c #718B95",
"l@	c #A8DCFF",
"m@	c #73B9FF",
"n@	c #3596F4",
"o@	c #157FE0",
"p@	c #164879",
"q@	c #002046",
"r@	c #C9F1FA",
"s@	c #A8D5EA",
"t@	c #7CC0F9",
"u@	c #4CA8F9",
"v@	c #3194EB",
"w@	c #338EE1",
"x@	c #000246",
"y@	c #75A1BB",
"z@	c #72B9EA",
"A@	c #65BBFD",
"B@	c #2772B8",
"C@	c #BBE2EA",
"D@	c #304A64",
"E@	c #60ACE2",
"F@	c #4A9CE2",
"G@	c #1D5A95",
"H@	c #001649",
"I@	c #5F7A8A",
"J@	c #28587C",
"K@	c #3B709A",
"L@	c #2D669A",
"M@	c #154A7D",
"N@	c #CBE4EA",
"O@	c #012750",
"P@	c #8B8E98",
"Q@	c #8C8F99",
"R@	c #626D7F",
"S@	c #E5E8EA",
"T@	c #001545",
"U@	c #000038",
"V@	c #001D45",
"W@	c #DFE0E2",
"X@	c #5B6378",
"Y@	c #EFF7F9",
"                                                                ",
". . . + . @ # $ % & & * = = = = = = = = * & & % - # @ ; > . . . ",
", , , , , # , ' ' ' ' ' ' ' ' ' ' ' ' ' ' ' ' ' ' ) # , ! , , , ",
"~ { ~ ] # ^ / ( _ : : < [ } } } } } } [ < : | _ ( / ^ # ] 1 2 ~ ",
"3 3 3 # 3 % ' 4 5 6 7 8 9 0 a 0 0 a 0 9 8 7 6 5 4 ' % b # 3 c 3 ",
"~ ] # ^ / d e f g h i j k l m l l m l k j n o p q e d / ^ # ] 1 ",
"~ # ~ / ' r s t u n v k w m m m m m m w k x y z A s r ' / B # ~ ",
"C ^ / D e E F G j H I J K L L L L L L L L M N O P F Q e D / ^ R ",
"~ / ' e s F S w G T U V W X X X X X X X V Y Z `  .S ..s e ' / +.",
"' @.#.E F $.m %.&.*.=.-.;.>.,.X X X V '.).!.~.{. .m m F E #.@.' ",
"' e ].F S m $.&.^./.(._.:.L J L L L L <.[.}.!.|.P $.m S F ].e ' ",
"' 1.2.3.%.%.&.4.5.6.7.8.9.0.a.b.$.c.G v n d.e.Y f.g.h.%.3.2.1.' ",
"' i.j.k.l.&.^.5.m.n.o.p.8.q.r.m b.k j s.h t.u.v.Y w.g.l.k.j.i.' ",
"' x.j.y.z.A.B.C.n.D.E.E.D.8.F.G.H.v I.J.K.J.J.d.L.N M.N.U j.x.' ",
"' O.2.P.y.=.(.7.o.E.D.D.E.p.8.Q.R.n S.K.J.J.J.t.d.v.Y y.T.2.O.' ",
"' U.].V.W.=.X.Y.o.E.E.E.E.Z.E.`. +.+++.+.+.+J.t.u.@+#+$+%+].r ' ",
"' &+#.*+=+-+;+>+Y.D.E.D.D.E.E.,+'+K.++J.J.J.J.u.L.)+!+~+{+#.]+' ",
"^+/ ' U.s V.W./+(+_+:+_+_+<+[+}+|+1+2+1+1+3+4+5+6+7+8+9+0+' a+b+",
"' ^ / c+U.*+V.d+e+f+g+g+f+h+i+j+k+l+m+l+l+n+o+p+q+8+r+s+t+/ ^ ' ",
"+.u+v+/ ' #.s w+x+y+z+A+B+C+D+E+F+G+H+I+J+K+L+M+N+9+O+' a+P+' ^+",
"Q+R+u+^ / c+U.S+9 T+U+V+W+X+Y+Z+`+ @.@+@@@#@$@%@&@0+*@a+^ ' =@' ",
"~ -@B u+;@/ ' >@s ,@'@)@!@~@{@]@^@I++@/@L+(@_@5 :@' % <@' v+[@+.",
"1 }@-@R+u+^ / |@#.1@2@3@4@5@~@6@^@J+@@L+$@_@7@:@8@a+^ ' =@9@0@Q+",
"~ 1 ~ -@B u+;@/ ' a@b@c@d@e@f@g@h@/@i@(@_@5 :@' % <@' ;@[@B -@~ ",
"~ 1 1 }@-@R+u+^ / j@k@b c@l@m@n@o@L+$@_@7@:@p@% ^ ' q@[@0@-@r@1 ",
"~ ~ ~ 1 ~ -@B u+;@/ ' a@b@s@t@u@v@(@w@5 :@' % <@' ;@[@B -@~ 1 ~ ",
"~ ~ ~ 1 1 }@-@x@u+^ / j@a@y@z@A@u@_@B@:@p@% ^ ' q@[@0@-@r@1 1 ~ ",
"3 3 3 3 3 c 3 C@b u+D@/ ' #.s E@F@5 G@' % H@' D@I@b C@3 c 3 3 3 ",
"~ ~ ~ ~ ~ 1 1 }@-@x@u+^ / J@e K@L@:@M@% ^ ' q@[@0@-@r@1 1 ~ ~ ~ ",
", , , , , , , ! , N@) O@P@' ' ' ' ' ' Q@O@P@Q@) N@, ! , , , , , ",
". . . . . . . ; ; R@S@T@# U@/ = * % $ # V@W@X@S@Y@; ; . . . . . ",
"                                                                "};
