/* XPM */
static char * Gem_xpm[] = {
"20 20 261 2",
"  	c #FDFFFF",
". 	c #000041",
"+ 	c #0B2B51",
"@ 	c #042850",
"# 	c #DEF9FF",
"$ 	c #495C73",
"% 	c #00234B",
"& 	c #01234A",
"* 	c #00224A",
"= 	c #00204A",
"- 	c #4A5C73",
"; 	c #CDF7FF",
"> 	c #435B73",
", 	c #001746",
"' 	c #000000",
") 	c #063E73",
"! 	c #2B76BA",
"~ 	c #2C79C1",
"{ 	c #4689C1",
"] 	c #5898C1",
"^ 	c #2C76BA",
"/ 	c #063F73",
"( 	c #435C73",
"_ 	c #00204B",
": 	c #335E7F",
"< 	c #4482B3",
"[ 	c #43A1F5",
"} 	c #52B0FF",
"| 	c #6DC3FF",
"1 	c #7CD0FF",
"2 	c #7CCFFF",
"3 	c #52AFFF",
"4 	c #409DF5",
"5 	c #4481B3",
"6 	c #001B47",
"7 	c #000D41",
"8 	c #274F72",
"9 	c #518CB3",
"0 	c #72C3F8",
"a 	c #57B2FF",
"b 	c #68BEFF",
"c 	c #73C7FF",
"d 	c #74C7FF",
"e 	c #63B8FF",
"f 	c #47A2FF",
"g 	c #70C1F8",
"h 	c #518DB3",
"i 	c #000C41",
"j 	c #001A46",
"k 	c #113459",
"l 	c #163A5E",
"m 	c #5695BE",
"n 	c #76C6F5",
"o 	c #7ACDFF",
"p 	c #5DB0FF",
"q 	c #4AA1FF",
"r 	c #46A1FF",
"s 	c #45A0FF",
"t 	c #409FFF",
"u 	c #4CA9FF",
"v 	c #74C8FF",
"w 	c #103459",
"x 	c #173C60",
"y 	c #5B9DC6",
"z 	c #73C1F0",
"A 	c #77CBFF",
"B 	c #63B9FF",
"C 	c #A2D7FF",
"D 	c #98D3FF",
"E 	c #68BDFF",
"F 	c #6ABEFF",
"G 	c #6BBEFF",
"H 	c #57B0FF",
"I 	c #389CFF",
"J 	c #46A3FF",
"K 	c #75C8FF",
"L 	c #113760",
"M 	c #4F9ADE",
"N 	c #70C5FF",
"O 	c #73C8FF",
"P 	c #6DBEFF",
"Q 	c #9DD5FF",
"R 	c #CAF6FF",
"S 	c #C7F7FF",
"T 	c #A2E1FF",
"U 	c #7DCFFF",
"V 	c #7BCFFF",
"W 	c #55B1FF",
"X 	c #3FA2FF",
"Y 	c #41A0FF",
"Z 	c #5CB2FF",
"` 	c #0D3660",
" .	c #4491DD",
"..	c #5FB5FF",
"+.	c #73C0FF",
"@.	c #97D0FF",
"#.	c #CEF9FF",
"$.	c #D7FFFF",
"%.	c #C8F6FF",
"&.	c #9BDCFF",
"*.	c #75C6FF",
"=.	c #51AEFF",
"-.	c #40A4FF",
";.	c #42A5FF",
">.	c #40A3FF",
",.	c #3B9DFF",
"'.	c #5FB4FF",
").	c #61B7FF",
"!.	c #61A6D3",
"~.	c #5BB0F9",
"{.	c #7EBDFF",
"].	c #C4F0FF",
"^.	c #D4FDFF",
"/.	c #D6FFFF",
"(.	c #C7F4FF",
"_.	c #6AB7FF",
":.	c #3EA4FF",
"<.	c #399AFF",
"[.	c #5AAEF9",
"}.	c #61A7D3",
"|.	c #15395D",
"1.	c #2E597C",
"2.	c #599CCA",
"3.	c #6CBCFD",
"4.	c #7DBBFF",
"5.	c #C7F2FE",
"6.	c #D3FCFD",
"7.	c #D2FBFD",
"8.	c #D3FCFE",
"9.	c #C6F2FF",
"0.	c #67B3FE",
"a.	c #3BA1FD",
"b.	c #41A3FD",
"c.	c #3FA2FE",
"d.	c #3698FF",
"e.	c #3193FD",
"f.	c #307BCA",
"g.	c #2F5A7C",
"h.	c #77C8F7",
"i.	c #00002D",
"j.	c #3B6B8C",
"k.	c #5395C5",
"l.	c #6BBAF9",
"m.	c #7AB3E8",
"n.	c #7DB1E3",
"o.	c #80B6ED",
"p.	c #7AB5FA",
"q.	c #3D82E4",
"r.	c #1F72DE",
"s.	c #2373DE",
"t.	c #227ADF",
"u.	c #258AE8",
"v.	c #2E91F9",
"w.	c #2371C5",
"x.	c #104C8C",
"y.	c #001E4B",
"z.	c #00224C",
"A.	c #3B6B8D",
"B.	c #589BC6",
"C.	c #53A6E6",
"D.	c #1586DD",
"E.	c #0079DF",
"F.	c #1388F2",
"G.	c #1F89F8",
"H.	c #055CD5",
"I.	c #004DCC",
"J.	c #0059CE",
"K.	c #1476DA",
"L.	c #2B8DE6",
"M.	c #2373C6",
"N.	c #144E8D",
"O.	c #02254C",
"P.	c #04284F",
"Q.	c #CCF5FD",
"R.	c #4D677E",
"S.	c #00002C",
"T.	c #2D597C",
"U.	c #64A8D3",
"V.	c #7AB4E3",
"W.	c #63A7F3",
"X.	c #2F97FF",
"Y.	c #2D8DF9",
"Z.	c #0E5FD6",
"`.	c #005ACE",
" +	c #1678DB",
".+	c #2B8CE3",
"++	c #3386D3",
"@+	c #164A7C",
"#+	c #00042C",
"$+	c #1E3B60",
"%+	c #7692A0",
"&+	c #CEF7FF",
"*+	c #001C4B",
"=+	c #02325B",
"-+	c #385570",
";+	c #AACDD2",
">+	c #A1D5F8",
",+	c #5CADFF",
"'+	c #3391F9",
")+	c #0F66D7",
"!+	c #0F76D8",
"~+	c #2E8FE7",
"{+	c #114170",
"]+	c #08315B",
"^+	c #01274F",
"/+	c #87A5B1",
"(+	c #C7EFF7",
"_+	c #7B99AA",
":+	c #001B49",
"<+	c #00003D",
"[+	c #2B405B",
"}+	c #556C7B",
"|+	c #9EC1CA",
"1+	c #ABDEFD",
"2+	c #4AA3FA",
"3+	c #1A81DE",
"4+	c #3193ED",
"5+	c #2E7EC7",
"6+	c #00163D",
"7+	c #577188",
"8+	c #C5EDF5",
"9+	c #CFF8FF",
"0+	c #3E566F",
"a+	c #001449",
"b+	c #6E858C",
"c+	c #7BA9C5",
"d+	c #69BDFB",
"e+	c #42A0F4",
"f+	c #2978C0",
"g+	c #1D578D",
"h+	c #2C4563",
"i+	c #C2E9F1",
"j+	c #CEF8FF",
"k+	c #7A99AA",
"l+	c #001D4C",
"m+	c #34698E",
"n+	c #5393BF",
"o+	c #377FC0",
"p+	c #1B578F",
"q+	c #01244C",
"r+	c #02274F",
"s+	c #557188",
"t+	c #C0E8F1",
"u+	c #CFF9FF",
"v+	c #DFFAFF",
"w+	c #DDF7FD",
"x+	c #5A687E",
"y+	c #00214C",
"z+	c #001F4A",
"A+	c #00234A",
"B+	c #4B5670",
"C+	c #A3ACB3",
"D+	c #D7F0F5",
"E+	c #DFFBFF",
"F+	c #FBFCFC",
"G+	c #000D47",
"H+	c #072951",
"I+	c #000C47",
"J+	c #FAFAFB",
"K+	c #FBFBFB",
"L+	c #FDFEFE",
"      . + @ @ @ @ @ @ @ @ @ @ + .       ",
"# # $ % & & & * = = = = * & & & % - # # ",
"; > , ' ) ! ~ { ] ] ] ] { ~ ^ / ' , ( ; ",
". _ ' : < [ } | 1 2 2 1 | 3 4 5 : ' _ . ",
"6 7 8 9 0 a b c d d d d d e f g h 8 i j ",
"k l m n o c p q r r r r s t u v n m l w ",
"x y z 2 A B C D E F F G H I J K 1 z y x ",
"L M N O P Q R S T U V | W X Y Z K N M L ",
"`  ...+.@.#.$.$.%.&.*.=.-.;.>.,.'.). .` ",
"x !.~.{.].^././.$.(._.:.;.;.;.X <.[.}.x ",
"|.1.2.3.4.5.6.7.8.9.0.a.b.b.c.d.e.f.g.|.",
"h.i.j.k.l.m.n.n.o.p.q.r.s.t.u.v.w.x.i.h.",
"y.z.' A.B.C.D.E.F.G.H.I.J.K.L.M.N.' O.P.",
"Q.R.z.S.T.U.V.W.X.Y.Z.`. +.+++@+#+O.$+%+",
"&+Q.*+' =+-+;+>+,+'+)+!+~+++{+]+' ^+/+(+",
"&+&+_+:+<+[+}+|+1+2+3+4+5+@+]+6+& 7+8+&+",
"&+&+9+0+a+' S.b+c+d+e+f+g+S.' & h+i+9+&+",
"; ; ; j+k+*+l+' m+n+o+p+' q+r+s+t+u+; ; ",
"# # # # v+w+x+y+z+= A+& q+B+C+D+E+# # # ",
"            F+G+H+@ @ H+I+J+K+L+        "};
