/* XPM */
static char * house_xpm[] = {
"32 26 21 1",
" 	c #68A9F5",
".	c #5C472E",
"+	c #735839",
"@	c #8A6A45",
"#	c #624239",
"$	c #724D42",
"%	c #A17C50",
"&	c #82584C",
"*	c #353536",
"=	c #A6CAF0",
"-	c #93B3D5",
";	c #936356",
">	c #A0A0A4",
",	c #8E8E91",
"'	c #B88E5C",
")	c #BF5435",
"!	c #C0DCC0",
"~	c #B127FF",
"{	c #E8DC71",
"]	c #DFCE38",
"^	c #DA603D",
"!!!!!!!!!!!!!!+$$+!!!!!!!!!!!!!!",
"!!!!!!!!!!!!>&@++@&>!!!!!!!!!!!!",
"!!!!!!!!!!!@+.@++@.+@!!!!!!!!!!!",
"!!!!!!!!!++@+.@++@.+@++!!!!!!!!!",
"!!!!!!!>+@+@+.++++.+@+@+>!!!!!!!",
"!!!!!!&++@+@++%++%++@+@++&!!!!!!",
"!!!!++@++@+@@@@@@@@+@+@++@++!!!!",
"!!>@@+@+.++%@.+..+.%%++.+@+@+>!!",
"!+++@+@++%+@@.++++.@@+%@+@+@+++!",
"!@++@+@+@@@..++++++..@%@+@+@++@!",
">@++++%@.+.++++++++++++.%%++++@>",
">@+@%+@@.++++++++++++++.@@+%@+@>",
"+@.@@+.++++++++++++++++++++%@+@+",
"@%@++.++++++++++++++++++++.++%%+",
",@@.+++++++++++++++++++++++++@@,",
"!,.++$$&$$&$&++++$&&&&&&$&&$+.,!",
"!>+$%;%;;;;%;;#+&;;%@%@;@%%;++>!",
"!>+#$&,,,,,,$$#+#$$######$$$.+>!",
"!>++$;------$$++.$$#######$$++>!",
"!>+.$,------$$++.$########$$.+>!",
"!>++$;------$$++.&########$$++>!",
"!>+#$#%&~,%;#$++.&########$$.+>!",
"!>++&++$&$+$++++.&#$$$$$$#$$++>!",
"!>++.........#++.$$!!!!!!>$$.+>!",
"!!,,,,,,,,,,,,,,#@$!!!!!!!$&#>!!",
"!!!!!!!!!!!!!!!!>#,!!!!!!!&.!!!!"};
