/* XPM */
static char * path_xpm[] = {
"32 32 200 2",
"  	c #42332B",
". 	c #16262B",
"+ 	c #15262B",
"@ 	c #17262B",
"# 	c #18272B",
"$ 	c #1A272B",
"% 	c #001A27",
"& 	c #001B27",
"* 	c #362F2E",
"= 	c #503932",
"- 	c #573C34",
"; 	c #583D34",
"> 	c #503933",
", 	c #352E2E",
"' 	c #001F28",
") 	c #002229",
"! 	c #00232A",
"~ 	c #3C312F",
"{ 	c #734A3B",
"] 	c #8D5742",
"^ 	c #945B44",
"/ 	c #744A3B",
"( 	c #3A302F",
"_ 	c #001E28",
": 	c #002129",
"< 	c #5A3D35",
"[ 	c #855340",
"} 	c #A5654A",
"| 	c #AF6A4D",
"1 	c #865440",
"2 	c #593D34",
"3 	c #413330",
"4 	c #453430",
"5 	c #463531",
"6 	c #955C45",
"7 	c #A26449",
"8 	c #A7664B",
"9 	c #885541",
"0 	c #83523F",
"a 	c #84523F",
"b 	c #A6664B",
"c 	c #A26349",
"d 	c #965E46",
"e 	c #915C45",
"f 	c #955D46",
"g 	c #9F6249",
"h 	c #A8664B",
"i 	c #AB684C",
"j 	c #AA684C",
"k 	c #AA674C",
"l 	c #925C45",
"m 	c #935C45",
"n 	c #885743",
"o 	c #895743",
"p 	c #8F5A44",
"q 	c #9C6148",
"r 	c #A8674B",
"s 	c #AC694C",
"t 	c #AA674B",
"u 	c #8F5B44",
"v 	c #905B45",
"w 	c #985F47",
"x 	c #975E47",
"y 	c #905B44",
"z 	c #895843",
"A 	c #8C5943",
"B 	c #915B45",
"C 	c #975F47",
"D 	c #8D5A44",
"E 	c #8A5843",
"F 	c #8B5943",
"G 	c #936148",
"H 	c #9F6B4E",
"I 	c #A16D4F",
"J 	c #97644A",
"K 	c #8C5A44",
"L 	c #895742",
"M 	c #875642",
"N 	c #8B5944",
"O 	c #BC845D",
"P 	c #C0885F",
"Q 	c #A97554",
"R 	c #8F5D46",
"S 	c #8B5843",
"T 	c #885642",
"U 	c #A67252",
"V 	c #C58C62",
"W 	c #CA9165",
"X 	c #B07B57",
"Y 	c #915F47",
"Z 	c #875542",
"` 	c #9A674B",
" .	c #B07A57",
"..	c #B47E59",
"+.	c #A26E50",
"@.	c #8E5C45",
"#.	c #8E5A44",
"$.	c #905C45",
"%.	c #925F47",
"&.	c #946148",
"*.	c #956349",
"=.	c #8D5944",
"-.	c #AB694C",
";.	c #9F6248",
">.	c #A1654A",
",.	c #AA7051",
"'.	c #B27B57",
").	c #AB7654",
"!.	c #97654A",
"~.	c #8C5944",
"{.	c #945D46",
"].	c #A3644A",
"^.	c #AE6A4D",
"/.	c #B06A4D",
"(.	c #B46F50",
"_.	c #C2825C",
":.	c #CF9265",
"<.	c #C48B61",
"[.	c #A57151",
"}.	c #9E6248",
"|.	c #A4654A",
"1.	c #A06349",
"2.	c #B26B4E",
"3.	c #B97151",
"4.	c #C8835C",
"5.	c #D29165",
"6.	c #C78B61",
"7.	c #A67051",
"8.	c #A16349",
"9.	c #9E6148",
"0.	c #B76F50",
"a.	c #C07956",
"b.	c #C47F5A",
"c.	c #B87956",
"d.	c #9F674B",
"e.	c #885742",
"f.	c #975E46",
"g.	c #9C6249",
"h.	c #AF6F50",
"i.	c #BD7856",
"j.	c #BD7755",
"k.	c #B57050",
"l.	c #AA694C",
"m.	c #9D6248",
"n.	c #9C6048",
"o.	c #AD6D4F",
"p.	c #CE8D62",
"q.	c #C2835C",
"r.	c #AA6D4F",
"s.	c #A16249",
"t.	c #A4644A",
"u.	c #965D46",
"v.	c #A7674B",
"w.	c #BA7554",
"x.	c #CC8B61",
"y.	c #D39668",
"z.	c #C0875F",
"A.	c #A16B4E",
"B.	c #995F47",
"C.	c #915E46",
"D.	c #956248",
"E.	c #9F664B",
"F.	c #AC6A4D",
"G.	c #A9674B",
"H.	c #885441",
"I.	c #B97352",
"J.	c #C0805A",
"K.	c #BE855D",
"L.	c #AD7956",
"M.	c #966449",
"N.	c #9D6148",
"O.	c #A1644A",
"P.	c #AD7252",
"Q.	c #B77E59",
"R.	c #AE7252",
"S.	c #A2644A",
"T.	c #B16C4F",
"U.	c #AA6B4E",
"V.	c #9D674C",
"W.	c #8D5B45",
"X.	c #9C6047",
"Y.	c #AE6C4E",
"Z.	c #C1805A",
"`.	c #D09266",
" +	c #CA9064",
".+	c #AF7855",
"++	c #9A6148",
"@+	c #A06248",
"#+	c #995E46",
"$+	c #A9694C",
"%+	c #BD7C58",
"&+	c #CE8D63",
"*+	c #C88B61",
"=+	c #AA7353",
"-+	c #965F47",
";+	c #A96C4E",
">+	c #BA7856",
",+	c #B87755",
"'+	c #A1684C",
")+	c #945E46",
"  . . + . . . . . . . . + @ # $ $ # @ + . . . . . . . . + . .   ",
". % & * = - ; ; ; ; - > , ' ) ! ! ) ' , > - ; ; ; ; - = * & % . ",
". & & ~ { ] ^ ^ ^ ^ ] / ( _ : ) ) : _ ( / ] ^ ^ ^ ^ ] { ~ & & . ",
"+ * ~ < [ } | | | | } 1 2 3 4 5 5 4 3 2 1 } | | | | } [ < ~ * + ",
". = { [ 6 7 8 8 8 8 7 6 9 0 a a a a 0 9 6 7 b b b 8 c 6 [ { = . ",
". - ] } 7 d e e e e f g h i j k k j i h g d l m m l d c } ] - . ",
". ; ^ | 8 e n o o o p q r s i i k t i r q u v w x y l 8 | ^ ; . ",
". ; ^ | 8 e o z z z A B d w C C w w w d v D w b b x m b | ^ ; . ",
". ; ^ | 8 e o z E E E E E E F G H I J K L A w 8 b w m b | ^ ; . ",
". ; ^ | 8 e o z E E E E z M N I O P Q R M S B w w v l b | ^ ; . ",
". - ] } 7 f p A E E E E E T K U V W X Y T E S A D u d 7 } ] - . ",
". > / 1 6 g q B E o o o o Z o `  ...+.@.T o n z v q g 6 1 / > . ",
"+ , ( 2 9 h r d F A #.#.#.$.%.&.*.&.R N A =.A F d r h 9 2 ( , + ",
"@ ' _ 3 0 i -.w v w g ;.>.,.'.).!.o M ~.f q w v w -.i 0 3 _ ' @ ",
"# ) : 4 a j i w {.].^./.(._.:.<.[.K Z #.}.j |.f w i j a 4 : ) # ",
"$ ! ) 5 a k i w m 1.s 2.3.4.5.6.7.K M #.q 8 8.{.w i k a 5 ) ! $ ",
"$ ! ) 5 a k i C #.m 9.i 0.a.b.c.d.N e.A l f.{.#.C i k a 5 ) ! $ ",
"# ) : 4 a j i C =.y g.h.i.j.k.l.m.m #.S E S E E f.i k a 4 : ) # ",
"@ ' _ 3 0 i i w B n.o._.p.q.r.s.t.].C ~.n e.M T u.i i 0 3 _ ' @ ",
"+ , ( 2 9 h v.d f 8 w.x.y.z.A.B.8 j q #.A u C.D.E.F.G.H.2 ( , + ",
". > / 1 6 g q e f.i I.J.K.L.M.l N.1.d p f O.P.Q.Q.R.S.^ 1 / > . ",
". - ] } 7 f #.A d G.T.U.V.G W.~.p v ~.p X.Y.Z.`. +.+++@+} ] - . ",
". ; ^ | 8 e n E m 1.|.B.S M o o o n e.=.#+$+%+&+*+=+-+} | ^ ; . ",
". ; ^ | 8 e o z D l {.y S o E E E E E A p C ;+>+,+'+)+} | ^ ; . ",
". ; ^ | 8 e o z z E A B d w x x x x w d v #.w 8 b w m b | ^ ; . ",
". ; ^ | 8 e n o o n #.q r s i i i i s r q p p u.u.p l 8 | ^ ; . ",
". - ] } 7 d e e e e f g h i j k k j i h g d l m m l d c } ] - . ",
". = { [ 6 7 8 8 8 8 7 6 9 0 a a a a 0 9 6 7 b b b 8 c 6 [ { = . ",
"+ * ~ < [ } | | | | } 1 2 3 4 5 5 4 3 2 1 } | | | | } [ < ~ * + ",
". & & ~ { ] ^ ^ ^ ^ ] / ( _ : ) ) : _ ( / ] ^ ^ ^ ^ ] { ~ & & . ",
". % & * = - ; ; ; ; - > , ' ) ! ! ) ' , > - ; ; ; ; - = * & % . ",
"  . . + . . . . . . . . + @ # $ $ # @ + . . . . . . . . + . .   "};
