/* XPM */
static char * path_xpm[] = {
"20 20 105 2",
"  	c #1D282B",
". 	c #3C312F",
"+ 	c #282A2C",
"@ 	c #001024",
"# 	c #1A272B",
"$ 	c #001826",
"% 	c #5A3E35",
"& 	c #8A5641",
"* 	c #8F5843",
"= 	c #001D28",
"- 	c #002129",
"; 	c #7E4F3E",
"> 	c #A7664B",
", 	c #AE6A4D",
"' 	c #A8664B",
") 	c #7E503E",
"! 	c #654337",
"~ 	c #674438",
"{ 	c #945D46",
"] 	c #905B44",
"^ 	c #945D45",
"/ 	c #A5654A",
"( 	c #AD694C",
"_ 	c #AC684C",
": 	c #925C45",
"< 	c #885743",
"[ 	c #895743",
"} 	c #8C5943",
"| 	c #995F47",
"1 	c #9E6249",
"2 	c #9E6148",
"3 	c #9D6148",
"4 	c #985F47",
"5 	c #8E5A44",
"6 	c #9F6249",
"7 	c #8A5843",
"8 	c #895843",
"9 	c #885742",
"0 	c #926047",
"a 	c #AA7654",
"b 	c #9E6B4E",
"c 	c #8C5944",
"d 	c #A06349",
"e 	c #885642",
"f 	c #9C694C",
"g 	c #CB9165",
"h 	c #B47E59",
"i 	c #905E46",
"j 	c #A36F50",
"k 	c #99664B",
"l 	c #9E6248",
"m 	c #A16349",
"n 	c #AE7453",
"o 	c #B27C58",
"p 	c #875542",
"q 	c #915B45",
"r 	c #935C45",
"s 	c #AF6A4D",
"t 	c #B56D4F",
"u 	c #CA875E",
"v 	c #CF9265",
"w 	c #9D694C",
"x 	c #965E46",
"y 	c #AA684C",
"z 	c #8D5944",
"A 	c #B16C4E",
"B 	c #BE7754",
"C 	c #B87654",
"D 	c #976047",
"E 	c #925B45",
"F 	c #A96B4D",
"G 	c #C9885F",
"H 	c #BF805A",
"I 	c #A2644A",
"J 	c #A4654A",
"K 	c #875642",
"L 	c #9D6048",
"M 	c #9B6047",
"N 	c #B97353",
"O 	c #CC8E63",
"P 	c #B6805A",
"Q 	c #935E46",
"R 	c #9C6148",
"S 	c #986047",
"T 	c #A36D4F",
"U 	c #AB7151",
"V 	c #A7674B",
"W 	c #8B5843",
"X 	c #9C6048",
"Y 	c #B06C4E",
"Z 	c #A1674C",
"` 	c #915F47",
" .	c #8B5943",
"..	c #8F5A44",
"+.	c #955D46",
"@.	c #B06D4F",
"#.	c #CE8F63",
"$.	c #C48B61",
"%.	c #9A6249",
"&.	c #A7654A",
"*.	c #8D5943",
"=.	c #9E6349",
"-.	c #BD7C58",
";.	c #B77956",
">.	c #945E46",
"  . + + + + + + @ # # @ + + + + + + .   ",
". $ % & * * & % = - - = % & * * & % $ . ",
"+ % ; > , , ' ) ! ~ ~ ! ) > , , > ; % + ",
"+ & > { ] ] ^ / ( _ _ ( / { : : { > & + ",
"+ * , ] < [ } | 1 2 3 3 4 5 6 6 : , * + ",
"+ * , ] [ 7 7 8 9 0 a b 8 c d 6 : , * + ",
"+ & ' ^ } 7 7 7 e f g h 7 7 c 5 { > & + ",
"+ % ) / | 8 7 7 [ i j k 7 7 8 4 / ) % + ",
"@ = ! ( l : d m n o 0 p q l r l ( ! = @ ",
"# - ~ _ 3 4 s t u v w p x y | 3 _ ~ - # ",
"# - ~ _ l z | A B C D [ z : z l _ ~ - # ",
"@ = ! ( l E F G H I J 4 8 9 K L ( ! = @ ",
"+ % ) / 4 M N O P Q > R 5 S T U V ; % + ",
"+ & ' ^ W X Y Z `  ...c +.@.#.$.%.&.& + ",
"+ * , ] < q | *.e [ < < 5 =.-.;.>., * + ",
"+ * , ] < < W | 1 l l 1 4 z 2 2 : , * + ",
"+ & > { ] ] ^ / ( _ _ ( / { : : { > & + ",
"+ % ; > , , ' ) ! ~ ~ ! ) > , , > ; % + ",
". $ % & * * & % = - - = % & * * & % $ . ",
"  . + + + + + + @ # # @ + + + + + + .   "};
