/* XPM */
static char * slime_xpm[] = {
"20 20 110 2",
"  	c #000000",
". 	c #800000",
"+ 	c #870606",
"@ 	c #8C0C0C",
"# 	c #8C1C1C",
"$ 	c #8C1D1D",
"% 	c #860505",
"& 	c #880808",
"* 	c #961C1C",
"= 	c #EB4444",
"- 	c #F07575",
"; 	c #F07979",
"> 	c #840303",
", 	c #951212",
"' 	c #E74141",
") 	c #EE7272",
"! 	c #FE7F7F",
"~ 	c #FFB1B1",
"{ 	c #FFB5B5",
"] 	c #810101",
"^ 	c #920F0F",
"/ 	c #E53E3E",
"( 	c #FE7878",
"_ 	c #FFAFAF",
": 	c #FFB4B4",
"< 	c #FFBEBE",
"[ 	c #FFBFBF",
"} 	c #7F0000",
"| 	c #900D0D",
"1 	c #E23C3C",
"2 	c #FE7676",
"3 	c #FFAEAE",
"4 	c #FFBCBC",
"5 	c #FF9A9A",
"6 	c #FF9595",
"7 	c #910E0E",
"8 	c #DE3939",
"9 	c #FE7474",
"0 	c #FFA9A9",
"a 	c #FF9B9B",
"b 	c #FF9797",
"c 	c #FF8181",
"d 	c #FF7F7F",
"e 	c #7C0000",
"f 	c #8F1E1E",
"g 	c #F96B6B",
"h 	c #FF8282",
"i 	c #FF9898",
"j 	c #FF8080",
"k 	c #900C0C",
"l 	c #D63A3A",
"m 	c #FC7C7C",
"n 	c #FF7E7E",
"o 	c #FF7C7C",
"p 	c #FF7D7D",
"q 	c #911C1C",
"r 	c #F96666",
"s 	c #FF8A8A",
"t 	c #FCC6C6",
"u 	c #C66D6D",
"v 	c #FA6464",
"w 	c #FF6565",
"x 	c #FF7373",
"y 	c #FCC5C5",
"z 	c #C66F6F",
"A 	c #FA7E7E",
"B 	c #912525",
"C 	c #F87C7C",
"D 	c #FB7575",
"E 	c #BFB5B5",
"F 	c #5F3F3F",
"G 	c #F53B3B",
"H 	c #FF3E3E",
"I 	c #FB5454",
"J 	c #BFB4B4",
"K 	c #5F4444",
"L 	c #F56666",
"M 	c #FF6A6A",
"N 	c #F54040",
"O 	c #420000",
"P 	c #4A1414",
"Q 	c #F53D3D",
"R 	c #FF4040",
"S 	c #F53C3C",
"T 	c #4A1313",
"U 	c #F54141",
"V 	c #911E1E",
"W 	c #FF7B7B",
"X 	c #FF4646",
"Y 	c #F93E3E",
"Z 	c #B02C2C",
"` 	c #FE6B6B",
" .	c #FF5C5C",
"..	c #FF4242",
"+.	c #FF3F3F",
"@.	c #FE6D6D",
"#.	c #FF5757",
"$.	c #FF4141",
"%.	c #E33D3D",
"&.	c #EA6D6D",
"*.	c #FE7272",
"=.	c #FF5959",
"-.	c #FF5656",
";.	c #840505",
">.	c #941717",
",.	c #E74040",
"'.	c #EC6F6F",
").	c #EC7272",
"!.	c #881515",
"~.	c #881616",
"            . . . . . . . .             ",
"        . . + @ # $ $ # @ + . .         ",
"      . % & * = - ; ; - = * & % .       ",
"    . > , ' ) ! ~ { { ~ ! ) ' , > .     ",
"  . ] ^ / ( _ : < [ [ < : _ ( / ^ ] .   ",
". } | 1 2 3 4 5 6 6 6 6 5 4 3 2 1 | } . ",
". 7 8 9 0 a b c d d d d c b a 0 9 8 7 . ",
"e f g h i c d j j j j j j d c i h g f e ",
"k l m j n o c c c c c c j p j d j m l k ",
"q r n j s t u v w w w w x y z A j n r q ",
"B C j d D E F G H H H H I J K L d j C B ",
"B C n M N O P Q R R R R S O T U M n C B ",
"V g W X Y Z Z Y R R R R Y Z Z Y X W g V ",
"| 8 `  ...+.R R R R R R R R +... .` 8 | ",
"} | 1 @. .#.$.+.+.+.+.+.+.$.#. .@.1 | } ",
". ] ^ %.&.*.=.-.-.-.-.-.-.=.*.&.%.^ ] . ",
"  . > ;.>.,.'.).).).).).).'.,.>.;.> .   ",
"    . . % & !.~.~.~.~.~.~.!.& % . .     ",
"        . . . . . . . . . . . .         ",
"                                        "};
