/* XPM */
static char * slime_xpm[] = {
"32 30 238 2",
"  	c #000000",
". 	c #800000",
"+ 	c #7D0000",
"@ 	c #700000",
"# 	c #760000",
"$ 	c #7E0000",
"% 	c #780000",
"& 	c #8D0707",
"* 	c #991212",
"= 	c #9A1F1F",
"- 	c #9A2D2D",
"; 	c #9A3030",
"> 	c #7F0000",
", 	c #7A0000",
"' 	c #950D0D",
") 	c #D02C2C",
"! 	c #E34C4C",
"~ 	c #E36767",
"{ 	c #E36D6D",
"] 	c #E36C6C",
"^ 	c #7B0000",
"/ 	c #570000",
"( 	c #6A0000",
"_ 	c #980E0E",
": 	c #B52020",
"< 	c #B83737",
"[ 	c #C44B4B",
"} 	c #ED5656",
"| 	c #FF7474",
"1 	c #FF9595",
"2 	c #FF9C9C",
"3 	c #FF9B9B",
"4 	c #6B0000",
"5 	c #880606",
"6 	c #8A0707",
"7 	c #AF2121",
"8 	c #E73F3F",
"9 	c #F86565",
"0 	c #F87F7F",
"a 	c #FC8282",
"b 	c #FF9797",
"c 	c #FFB5B5",
"d 	c #FFBBBB",
"e 	c #FFBABA",
"f 	c #6D0000",
"g 	c #870505",
"h 	c #BF2222",
"i 	c #E14040",
"j 	c #F96464",
"k 	c #FF8C8C",
"l 	c #FFA8A8",
"m 	c #FFACAC",
"n 	c #FFB3B3",
"o 	c #FFBEBE",
"p 	c #FFC1C1",
"q 	c #730000",
"r 	c #990E0E",
"s 	c #B22222",
"t 	c #E04040",
"u 	c #FE6666",
"v 	c #FF8B8B",
"w 	c #FFAAAA",
"x 	c #FFBCBC",
"y 	c #FFB7B7",
"z 	c #FFB1B1",
"A 	c #E23535",
"B 	c #850404",
"C 	c #860404",
"D 	c #B62222",
"E 	c #EA4141",
"F 	c #FA6565",
"G 	c #FF8A8A",
"H 	c #FFB8B8",
"I 	c #FF9E9E",
"J 	c #750000",
"K 	c #950F0F",
"L 	c #C02323",
"M 	c #DF4242",
"N 	c #FB6767",
"O 	c #FF9090",
"P 	c #FFA5A5",
"Q 	c #FFA4A4",
"R 	c #FF9F9F",
"S 	c #FF7E7E",
"T 	c #740000",
"U 	c #971919",
"V 	c #DE4141",
"W 	c #FE6161",
"X 	c #FFA1A1",
"Y 	c #FFABAB",
"Z 	c #FF8F8F",
"` 	c #FF8181",
" .	c #FF8282",
"..	c #FF8080",
"+.	c #810101",
"@.	c #770000",
"#.	c #992929",
"$.	c #E06161",
"%.	c #FF7979",
"&.	c #FF8E8E",
"*.	c #FF8484",
"=.	c #FF7F7F",
"-.	c #830202",
";.	c #AD1212",
">.	c #CA3A3A",
",.	c #EE6D6D",
"'.	c #FF7C7C",
").	c #FF7D7D",
"!.	c #830303",
"~.	c #C32E2E",
"{.	c #F65050",
"].	c #FE7272",
"^.	c #FF8585",
"/.	c #FF9191",
"(.	c #F98B8B",
"_.	c #F57B7B",
":.	c #FB7A7A",
"<.	c #FF7B7B",
"[.	c #FE9191",
"}.	c #F88787",
"|.	c #FC7E7E",
"1.	c #830707",
"2.	c #C54B4B",
"3.	c #FB7070",
"4.	c #FFD1D1",
"5.	c #D9B6B6",
"6.	c #B15F5F",
"7.	c #E45252",
"8.	c #FF5B5B",
"9.	c #FF5858",
"0.	c #FF9A9A",
"a.	c #FCD2D2",
"b.	c #CDA6A6",
"c.	c #B75E5E",
"d.	c #EE7777",
"e.	c #830A0A",
"f.	c #C55757",
"g.	c #FA7D7D",
"h.	c #FF7575",
"i.	c #F89090",
"j.	c #DFC7C7",
"k.	c #A1A9A9",
"l.	c #6D3D3D",
"m.	c #D62C2C",
"n.	c #FF3F3F",
"o.	c #FF3B3B",
"p.	c #F48C8C",
"q.	c #D7C8C8",
"r.	c #8E9898",
"s.	c #7F3C3C",
"t.	c #E56464",
"u.	c #FF6464",
"v.	c #E95151",
"w.	c #945B5B",
"x.	c #304A4A",
"y.	c #652323",
"z.	c #D83535",
"A.	c #FF4040",
"B.	c #DD4D4D",
"C.	c #805A5A",
"D.	c #224242",
"E.	c #7F2626",
"F.	c #E64444",
"G.	c #FF6565",
"H.	c #FF7878",
"I.	c #FF4F4F",
"J.	c #E53535",
"K.	c #5B1818",
"L.	c #D73636",
"M.	c #D63131",
"N.	c #550000",
"O.	c #7B1E1E",
"P.	c #E63838",
"Q.	c #830808",
"R.	c #C54E4E",
"S.	c #FB7373",
"T.	c #FF7171",
"U.	c #FF4B4B",
"V.	c #FF3E3E",
"W.	c #EC3B3B",
"X.	c #A92A2A",
"Y.	c #7D2020",
"Z.	c #9B2727",
"`.	c #E23838",
" +	c #830404",
".+	c #C43333",
"++	c #F85555",
"@+	c #FF7373",
"#+	c #FF7070",
"$+	c #FF4C4C",
"%+	c #FB3F3F",
"&+	c #EF3C3C",
"*+	c #E93A3A",
"=+	c #ED3B3B",
"-+	c #F93E3E",
";+	c #B21A1A",
">+	c #D33535",
",+	c #F25959",
"'+	c #FF6868",
")+	c #FF5353",
"!+	c #820202",
"~+	c #9D1717",
"{+	c #D93434",
"]+	c #F65656",
"^+	c #FE7070",
"/+	c #FF4E4E",
"(+	c #FF4848",
"_+	c #FF4141",
":+	c #660000",
"<+	c #8D0808",
"[+	c #A71818",
"}+	c #CC3636",
"|+	c #F75555",
"1+	c #FF6969",
"2+	c #FF6161",
"3+	c #FF4444",
"4+	c #7C0000",
"5+	c #AB1818",
"6+	c #D33232",
"7+	c #D85353",
"8+	c #E16767",
"9+	c #F96D6D",
"0+	c #FF6060",
"a+	c #8E0A0A",
"b+	c #901010",
"c+	c #8D1B1B",
"d+	c #AE2D2D",
"e+	c #E84141",
"f+	c #F85F5F",
"g+	c #F77575",
"h+	c #F77777",
"i+	c #980000",
"j+	c #B51F1F",
"k+	c #BA3A3A",
"l+	c #BA4D4D",
"m+	c #BA4F4F",
"n+	c #4C0000",
"o+	c #260000",
"                  . . . . . . . . . . . . . .                   ",
"            . . . + @ # # # # # # # # # # @ + . . .             ",
"        . . $ + + % & * = - ; ; ; ; - = * & % + + $ . .         ",
"        . . > $ $ , ' ) ! ~ { ] ] { ~ ! ) ' , $ $ > . .         ",
"    $ . ^ / ( _ : < [ } | 1 2 3 3 2 1 | } [ < : _ ( / ^ . $     ",
"    . . 4 5 6 7 8 9 0 a b c d e e d c b a 0 9 8 7 6 5 4 . .     ",
"  . > $ f g h i j k l m n o p p p p o n m l k j i h g f $ > .   ",
". ^ @ q r s t u v w x y z z z z z z z z y x w v u t s r q @ ^ . ",
". A B C D E F G m d H I k k k k k k k k I H d m G F E D C B A . ",
". J K L M N O P P Q R v S S S S S S S S v R Q P P O N M L K J . ",
"> T U V W S X Y Z `  .` ................`  .` Z Y X S W V U T > ",
"+.@.#.$.%...v &.*.=.=.....................=.=.*.&.v ..%.$.#.@.+.",
"-.;.>.,.` ..=.S '.S ` ` ` ` ` ` ` ` ` ` =.).=...=.=...` ,.>.;.-.",
"!.~.{.].......^./.(._.:.<.<.<.<.<.<.<.<.^.[.}._.|.......].{.~.!.",
"1.2.3.'.....).2 4.5.6.7.8.8.8.8.8.8.8.9.0.a.b.c.d.` ....'.3.2.1.",
"e.f.g.` ....h.i.j.k.l.m.n.n.n.n.n.n.n.o.p.q.r.s.t.%.....` g.f.e.",
"e.f.g.` ..<.u.v.w.x.y.z.A.A.A.A.A.A.A.A.B.C.D.E.F.G.<...` g.f.e.",
"e.f.g.` H.u.I.J.#   K.L.A.A.A.A.A.A.A.A.M.N.  O.P.I.u.H.` g.f.e.",
"Q.R.S.S T.U.V.W.X.Y.Z.`.A.A.A.A.A.A.A.A.`.Z.Y.X.W.V.U.T.S S.R.Q.",
" +.+++@+#+$+n.%+&+*+=+-+A.A.A.A.A.A.A.A.-+=+*+&+%+n.$+#+@+++.+ +",
"-.;+>+,+'+G.)+n.V.n.A.A.A.A.A.A.A.A.A.A.A.A.n.V.n.)+G.'+,+>+;+-.",
"!+> ~+{+]+^+u.I./+(+_+n.A.A.A.A.A.A.A.A.n._+(+/+I.u.^+]+{+~+> !+",
"B :+<+[+}+|+1+@+@+2+3+n.A.A.A.A.A.A.A.A.n.3+2+@+@+1+|+}+[+<+:+B ",
". 4+# # 5+6+7+8+9+1+2+0+2+2+2+2+2+2+2+2+0+2+1+9+8+7+6+5+# # 4+. ",
"  . $ 4+a+b+c+d+e+f+g+h+h+h+h+h+h+h+h+h+h+g+f+e+d+c+b+a+4+$ .   ",
"  . > $ T J @ i+j+k+l+m+m+m+m+m+m+m+m+m+m+l+k+j+i+@ J T $ > .   ",
"    n+. . . > $ $ $ $ $ $ $ $ $ $ $ $ $ $ $ $ $ $ > . . . n+    ",
"    o+. . . $ + + + + + + + + + + + + + + + + + + $ . . . o+    ",
"            . . . . . . . . . . . . . . . . . . . .             ",
"                                                                "};
