/* XPM */
static char * wall_xpm[] = {
"30 32 739 2",
"  	c #FFFFFF",
". 	c #000000",
"+ 	c #193523",
"@ 	c #369348",
"# 	c #3E0040",
"$ 	c #162122",
"% 	c #1B601E",
"& 	c #16682D",
"* 	c #16231B",
"= 	c #143B17",
"- 	c #4DA711",
"; 	c #76C50D",
"> 	c #419A1C",
", 	c #246423",
"' 	c #171F21",
") 	c #1E372B",
"! 	c #0B0000",
"~ 	c #005E34",
"{ 	c #0F1F20",
"] 	c #1C412B",
"^ 	c #017D00",
"/ 	c #FEF8FF",
"( 	c #474947",
"_ 	c #A9FFD9",
": 	c #427A57",
"< 	c #004C25",
"[ 	c #1C3D29",
"} 	c #1A4A2D",
"| 	c #153B23",
"1 	c #2E8D1C",
"2 	c #6AB711",
"3 	c #6BB81B",
"4 	c #B7EC2E",
"5 	c #2E9911",
"6 	c #20661C",
"7 	c #19481F",
"8 	c #84C81F",
"9 	c #579E16",
"0 	c #29651C",
"a 	c #1B4B1E",
"b 	c #142A19",
"c 	c #142520",
"d 	c #3A661E",
"e 	c #1C521F",
"f 	c #19401E",
"g 	c #000D00",
"h 	c #002811",
"i 	c #2D501F",
"j 	c #31591F",
"k 	c #1A4D22",
"l 	c #0A5E30",
"m 	c #248B1C",
"n 	c #0E6B31",
"o 	c #2F9116",
"p 	c #7AC713",
"q 	c #4CA215",
"r 	c #1F691E",
"s 	c #1B8225",
"t 	c #7BCA0D",
"u 	c #279413",
"v 	c #27691F",
"w 	c #358B17",
"x 	c #183820",
"y 	c #3F9D12",
"z 	c #7ACA0D",
"A 	c #359B12",
"B 	c #1A4A1E",
"C 	c #0F301D",
"D 	c #1A3E28",
"E 	c #1F5820",
"F 	c #75C60E",
"G 	c #2F9518",
"H 	c #1E8122",
"I 	c #429F18",
"J 	c #2B901D",
"K 	c #7FC816",
"L 	c #6FA331",
"M 	c #3A862B",
"N 	c #8ACF1A",
"O 	c #2C9713",
"P 	c #309113",
"Q 	c #255B28",
"R 	c #B0E130",
"S 	c #69BD0E",
"T 	c #164526",
"U 	c #3E9D17",
"V 	c #356F1B",
"W 	c #1C4E1F",
"X 	c #112319",
"Y 	c #393939",
"Z 	c #3B3B3B",
"` 	c #007131",
" .	c #066533",
"..	c #1B5523",
"+.	c #279119",
"@.	c #6FBF12",
"#.	c #489C1B",
"$.	c #ADE32C",
"%.	c #C3F333",
"&.	c #7DCB0F",
"*.	c #62A715",
"=.	c #A5E126",
"-.	c #2B751A",
";.	c #288E15",
">.	c #86C523",
",.	c #B2E92C",
"'.	c #35941E",
").	c #195722",
"!.	c #69B817",
"~.	c #2E9215",
"{.	c #232429",
"].	c #22244F",
"^.	c #1B2C22",
"/.	c #070306",
"(.	c #173020",
"_.	c #144928",
":.	c #0F5C2E",
"<.	c #224321",
"[.	c #258517",
"}.	c #35822D",
"|.	c #23841F",
"1.	c #37832D",
"2.	c #46A410",
"3.	c #1F6C1C",
"4.	c #247A18",
"5.	c #2B6C25",
"6.	c #23751A",
"7.	c #227819",
"8.	c #47A510",
"9.	c #317F2E",
"0.	c #1D6421",
"a.	c #1B5E22",
"b.	c #52AB11",
"c.	c #489F15",
"d.	c #273D4B",
"e.	c #2B882C",
"f.	c #254748",
"g.	c #261D29",
"h.	c #182B1F",
"i.	c #197129",
"j.	c #228E1C",
"k.	c #6ABD10",
"l.	c #258027",
"m.	c #2A8029",
"n.	c #6CBF0E",
"o.	c #8ED020",
"p.	c #289315",
"q.	c #66B113",
"r.	c #8BD317",
"s.	c #38842C",
"t.	c #B5EC2C",
"u.	c #49A70F",
"v.	c #1D7F29",
"w.	c #288D14",
"x.	c #1B7B2A",
"y.	c #289710",
"z.	c #73C116",
"A.	c #66B913",
"B.	c #106B32",
"C.	c #224146",
"D.	c #2D9711",
"E.	c #77C70D",
"F.	c #3B9D12",
"G.	c #261B31",
"H.	c #261D2C",
"I.	c #162120",
"J.	c #1E751E",
"K.	c #5FA922",
"L.	c #56AC16",
"M.	c #5AAF11",
"N.	c #6EBC16",
"O.	c #5CAF15",
"P.	c #5BA019",
"Q.	c #63B80F",
"R.	c #529319",
"S.	c #9EDC23",
"T.	c #ADE629",
"U.	c #379122",
"V.	c #1D6924",
"W.	c #4BA810",
"X.	c #238B15",
"Y.	c #4FAB0F",
"Z.	c #B9ED2E",
"`.	c #64BB10",
" +	c #298913",
".+	c #1A5340",
"++	c #538A41",
"@+	c #2E7142",
"#+	c #217526",
"$+	c #264346",
"%+	c #251C26",
"&+	c #0C8644",
"*+	c #30752C",
"=+	c #429E1A",
"-+	c #317E27",
";+	c #2D9419",
">+	c #177A2A",
",+	c #499527",
"'+	c #5EA625",
")+	c #C1F332",
"!+	c #69AD25",
"~+	c #1E711A",
"{+	c #7EBF21",
"]+	c #6DC10B",
"^+	c #84CA1A",
"/+	c #007D25",
"(+	c #BBEF2F",
"_+	c #65BA0E",
":+	c #17461F",
"<+	c #448B2F",
"[+	c #297041",
"}+	c #263C52",
"|+	c #349A12",
"1+	c #5BB10E",
"2+	c #204122",
"3+	c #73C50D",
"4+	c #364D3E",
"5+	c #252346",
"6+	c #FFF6FF",
"7+	c #3E8C16",
"8+	c #5DB310",
"9+	c #317324",
"0+	c #61B70E",
"a+	c #9FDE22",
"b+	c #78C80E",
"c+	c #A6E127",
"d+	c #9AD328",
"e+	c #1F7E26",
"f+	c #75C70D",
"g+	c #438B2D",
"h+	c #BDF030",
"i+	c #91D71B",
"j+	c #1A8514",
"k+	c #9CCA35",
"l+	c #47A20F",
"m+	c #146B22",
"n+	c #8AC724",
"o+	c #4E9D22",
"p+	c #274C25",
"q+	c #3C9F11",
"r+	c #7BCB0D",
"s+	c #3A5752",
"t+	c #226D23",
"u+	c #59AA15",
"v+	c #223F24",
"w+	c #25272A",
"x+	c #0D532E",
"y+	c #54AC12",
"z+	c #64B319",
"A+	c #3B7723",
"B+	c #077A29",
"C+	c #9ED728",
"D+	c #64B511",
"E+	c #1F8421",
"F+	c #238E17",
"G+	c #52A513",
"H+	c #66B414",
"I+	c #1B8721",
"J+	c #86C724",
"K+	c #49A318",
"L+	c #0A672D",
"M+	c #7DC718",
"N+	c #1F682C",
"O+	c #416D4B",
"P+	c #98C62D",
"Q+	c #268D22",
"R+	c #26254A",
"S+	c #287B37",
"T+	c #61B419",
"U+	c #287C1F",
"V+	c #164D3E",
"W+	c #2F8143",
"X+	c #2A4F55",
"Y+	c #261D27",
"Z+	c #086733",
"`+	c #154226",
" @	c #327A1A",
".@	c #59B00F",
"+@	c #AFE72A",
"@@	c #49A511",
"#@	c #299214",
"$@	c #287A2B",
"%@	c #ACE32B",
"&@	c #69B11E",
"*@	c #78C612",
"=@	c #74C112",
"-@	c #51AB10",
";@	c #359B13",
">@	c #156A1B",
",@	c #B5E92E",
"'@	c #558C34",
")@	c #7EC31E",
"!@	c #41952B",
"~@	c #26364F",
"{@	c #2E6624",
"]@	c #2B9116",
"^@	c #223B31",
"/@	c #2A5A4A",
"(@	c #73C30F",
"_@	c #363F62",
":@	c #262633",
"<@	c #2E2434",
"[@	c #8A9A88",
"}@	c #004C19",
"|@	c #066233",
"1@	c #268F18",
"2@	c #71C013",
"3@	c #72C40E",
"4@	c #19511F",
"5@	c #349115",
"6@	c #5BAD16",
"7@	c #9AD828",
"8@	c #539A20",
"9@	c #71BF13",
"0@	c #3E9B15",
"a@	c #207B28",
"b@	c #24612E",
"c@	c #79C810",
"d@	c #64B711",
"e@	c #115B32",
"f@	c #6FC00F",
"g@	c #6BBE0E",
"h@	c #268A1E",
"i@	c #273A51",
"j@	c #66BA10",
"k@	c #3C586E",
"l@	c #264136",
"m@	c #243F38",
"n@	c #6F7B6E",
"o@	c #014821",
"p@	c #10572D",
"q@	c #1B5A22",
"r@	c #22641C",
"s@	c #45A412",
"t@	c #B6E92F",
"u@	c #419E12",
"v@	c #45A113",
"w@	c #7CCB10",
"x@	c #379816",
"y@	c #67AC16",
"z@	c #BBEE30",
"A@	c #369E11",
"B@	c #276C3E",
"C@	c #1E4948",
"D@	c #2D941A",
"E@	c #185A40",
"F@	c #253E36",
"G@	c #275B4A",
"H@	c #116930",
"I@	c #24344E",
"J@	c #262137",
"K@	c #253A34",
"L@	c #282535",
"M@	c #287E31",
"N@	c #2A9517",
"O@	c #251656",
"P@	c #00240A",
"Q@	c #183021",
"R@	c #144828",
"S@	c #257E17",
"T@	c #289114",
"U@	c #8DC52B",
"V@	c #BCEF30",
"W@	c #45A115",
"X@	c #20571E",
"Y@	c #369B14",
"Z@	c #18722C",
"`@	c #80C622",
" #	c #9EDE21",
".#	c #54AE10",
"+#	c #287120",
"@#	c #2F941A",
"##	c #252747",
"$#	c #185542",
"%#	c #24542C",
"&#	c #75C50F",
"*#	c #65B40F",
"=#	c #25344E",
"-#	c #27434C",
";#	c #329321",
">#	c #299219",
",#	c #21404C",
"'#	c #253039",
")#	c #274128",
"!#	c #252348",
"~#	c #1F621D",
"{#	c #4DA213",
"]#	c #184D21",
"^#	c #53AA13",
"/#	c #5FA51B",
"(#	c #B0E131",
"_#	c #6FC10E",
":#	c #205623",
"<#	c #2E8C17",
"[#	c #1F681C",
"}#	c #5AB40F",
"|#	c #23721B",
"1#	c #9BD626",
"2#	c #9FDD24",
"3#	c #288F20",
"4#	c #262149",
"5#	c #245E27",
"6#	c #52AB12",
"7#	c #40971A",
"8#	c #262B39",
"9#	c #2A901D",
"0#	c #74C50E",
"a#	c #29831B",
"b#	c #1B7628",
"c#	c #313163",
"d#	c #251D27",
"e#	c #182F21",
"f#	c #143E20",
"g#	c #7DCD0D",
"h#	c #248317",
"i#	c #1C6022",
"j#	c #1E641F",
"k#	c #51AA13",
"l#	c #51AA11",
"m#	c #2E9812",
"n#	c #A8E02A",
"o#	c #80CD11",
"p#	c #1B5A1E",
"q#	c #14672B",
"r#	c #194220",
"s#	c #71AE1C",
"t#	c #83CD16",
"u#	c #3D831E",
"v#	c #1A6F2B",
"w#	c #29842D",
"x#	c #25402C",
"y#	c #3B8D2C",
"z#	c #319817",
"A#	c #26362B",
"B#	c #49A611",
"C#	c #339A14",
"D#	c #204C32",
"E#	c #245D28",
"F#	c #2A2441",
"G#	c #231B25",
"H#	c #1E3B29",
"I#	c #154327",
"J#	c #14792B",
"K#	c #1C4D1F",
"L#	c #1F861F",
"M#	c #5DA01B",
"N#	c #1E601E",
"O#	c #1D601F",
"P#	c #5B9F1A",
"Q#	c #035F2C",
"R#	c #2B691C",
"S#	c #21861F",
"T#	c #1D5B20",
"U#	c #208F19",
"V#	c #68AF1B",
"W#	c #1E821D",
"X#	c #28653A",
"Y#	c #419523",
"Z#	c #77C80B",
"`#	c #29733F",
" $	c #41A016",
".$	c #339A12",
"+$	c #26353B",
"@$	c #27572A",
"#$	c #243339",
"$$	c #26244C",
"%$	c #3F4078",
"&$	c #2F3162",
"*$	c #26244B",
"=$	c #28322B",
"-$	c #17281E",
";$	c #1D501E",
">$	c #3FA111",
",$	c #7CCC0D",
"'$	c #73C40E",
")$	c #21711B",
"!$	c #66B712",
"~$	c #40A111",
"{$	c #1A4B23",
"]$	c #9CDB23",
"^$	c #7FBB1E",
"/$	c #83C41E",
"($	c #6ABE0B",
"_$	c #278530",
":$	c #26143A",
"<$	c #243D44",
"[$	c #64B90F",
"}$	c #2C9215",
"|$	c #243C2A",
"1$	c #269611",
"2$	c #286924",
"3$	c #262142",
"4$	c #262847",
"5$	c #2C8F17",
"6$	c #2B812B",
"7$	c #2F2D63",
"8$	c #333056",
"9$	c #203E2B",
"0$	c #134628",
"a$	c #4DA910",
"b$	c #5FB60F",
"c$	c #29930F",
"d$	c #266428",
"e$	c #A4E025",
"f$	c #7FCD11",
"g$	c #327F19",
"h$	c #22691C",
"i$	c #98D821",
"j$	c #3B8B1B",
"k$	c #1D5620",
"l$	c #254B39",
"m$	c #261E4F",
"n$	c #27811A",
"o$	c #267D1B",
"p$	c #1C8326",
"q$	c #28652C",
"r$	c #1D4549",
"s$	c #252547",
"t$	c #1B5247",
"u$	c #276F3E",
"v$	c #262040",
"w$	c #246A3A",
"x$	c #2E9030",
"y$	c #295428",
"z$	c #2F2A4B",
"A$	c #221A27",
"B$	c #302536",
"C$	c #261E38",
"D$	c #1C6042",
"E$	c #24292B",
"F$	c #245B49",
"G$	c #2B9019",
"H$	c #258F17",
"I$	c #24731F",
"J$	c #288316",
"K$	c #56AF10",
"L$	c #216934",
"M$	c #20342E",
"N$	c #48A610",
"O$	c #299911",
"P$	c #22173A",
"Q$	c #57B00D",
"R$	c #68B22B",
"S$	c #212326",
"T$	c #367920",
"U$	c #51AC0F",
"V$	c #276226",
"W$	c #297A37",
"X$	c #2A9713",
"Y$	c #286F40",
"Z$	c #222540",
"`$	c #3F4077",
" %	c #272F4D",
".%	c #1F2224",
"+%	c #030204",
"@%	c #604D6B",
"#%	c #261E2A",
"$%	c #212836",
"%%	c #44A312",
"&%	c #72C40D",
"*%	c #263251",
"=%	c #26274B",
"-%	c #278E20",
";%	c #2A353A",
">%	c #3E8D22",
",%	c #274A2E",
"'%	c #449519",
")%	c #1F6C1D",
"!%	c #235D21",
"~%	c #248B14",
"{%	c #6CBF08",
"]%	c #23224E",
"^%	c #3F911A",
"/%	c #2C951A",
"(%	c #1A5533",
"_%	c #308045",
":%	c #273D2E",
"<%	c #282852",
"[%	c #222947",
"}%	c #23253D",
"|%	c #21232A",
"1%	c #2C2642",
"2%	c #242842",
"3%	c #329A12",
"4%	c #81CE15",
"5%	c #66B912",
"6%	c #206D37",
"7%	c #429E1E",
"8%	c #3EA013",
"9%	c #266225",
"0%	c #275831",
"a%	c #29931E",
"b%	c #62B51C",
"c%	c #143B2A",
"d%	c #54B00F",
"e%	c #20443C",
"f%	c #265143",
"g%	c #28882D",
"h%	c #242637",
"i%	c #1E3731",
"j%	c #298E18",
"k%	c #39446C",
"l%	c #272031",
"m%	c #272958",
"n%	c #414279",
"o%	c #241E30",
"p%	c #030407",
"q%	c #C0C0C0",
"r%	c #292132",
"s%	c #261E3F",
"t%	c #69B521",
"u%	c #175D30",
"v%	c #24472C",
"w%	c #6EBD12",
"x%	c #71C113",
"y%	c #298D17",
"z%	c #25821E",
"A%	c #242D2E",
"B%	c #287625",
"C%	c #265F2B",
"D%	c #5EB412",
"E%	c #60B40B",
"F%	c #212748",
"G%	c #4BA611",
"H%	c #6BBE0C",
"I%	c #264347",
"J%	c #27494C",
"K%	c #2D931B",
"L%	c #3E4C74",
"M%	c #282A53",
"N%	c #1C2C27",
"O%	c #3A396A",
"P%	c #261D2A",
"Q%	c #2B2230",
"R%	c #FDFDFD",
"S%	c #16071D",
"T%	c #251D2F",
"U%	c #263839",
"V%	c #261F30",
"W%	c #251D29",
"X%	c #1D3937",
"Y%	c #2A8728",
"Z%	c #1E4025",
"`%	c #243451",
" &	c #25891C",
".&	c #0B6532",
"+&	c #20404A",
"@&	c #242B2E",
"#&	c #2F692C",
"$&	c #256242",
"%&	c #262140",
"&&	c #276821",
"*&	c #319614",
"=&	c #3B4870",
"-&	c #262436",
";&	c #273452",
">&	c #3E3F75",
",&	c #2D2F58",
"'&	c #4D5555",
")&	c #23203B",
"!&	c #201821",
"~&	c #136700",
"{&	c #1D1A34",
"]&	c #23212A",
"^&	c #2A293E",
"/&	c #23363B",
"(&	c #248B1E",
"_&	c #2A9712",
":&	c #1D5F21",
"<&	c #1C4F35",
"[&	c #1B8126",
"}&	c #77C80D",
"|&	c #259414",
"1&	c #1A4931",
"2&	c #299218",
"3&	c #27373C",
"4&	c #3A3A6A",
"5&	c #212228",
"6&	c #262034",
"7&	c #1C1421",
"8&	c #444247",
"9&	c #CACACA",
"0&	c #E8E8E8",
"a&	c #231727",
"b&	c #241D2D",
"c&	c #252C4C",
"d&	c #14712F",
"e&	c #1B7A2B",
"f&	c #252639",
"g&	c #393A70",
"h&	c #286352",
"i&	c #299711",
"j&	c #2A9711",
"k&	c #185034",
"l&	c #286E42",
"m&	c #262A55",
"n&	c #2B3651",
"o&	c #191D4E",
"p&	c #495050",
"q&	c #D2D1D1",
"r&	c #FBFBFB",
"s&	c #FCFCFC",
"t&	c #211A26",
"u&	c #261E2B",
"v&	c #26203C",
"w&	c #252140",
"x&	c #251D28",
"y&	c #252037",
"z&	c #3C3B73",
"A&	c #0E6F2D",
"B&	c #1B6140",
"C&	c #232748",
"D&	c #26224B",
"E&	c #261C3C",
"F&	c #160716",
"G&	c #D1D1D1",
"H&	c #FAFAFA",
"I&	c #6B6B6B",
"J&	c #2D2433",
"K&	c #302738",
"L&	c #312B48",
"M&	c #BC9DCF",
"N&	c #332D4E",
"O&	c #252344",
"P&	c #26234C",
"Q&	c #1F2521",
"R&	c #32305D",
"S&	c #27295A",
"T&	c #302736",
"U&	c #2E2433",
"V&	c #000100",
"W&	c #CCCCCC",
"X&	c #C3C3C3",
"Y&	c #EFEFEF",
"Z&	c #29264A",
"`&	c #C3A4D9",
" *	c #828282",
".*	c #DCDCDC",
"+*	c #CFCFCF",
"                . + @ .                                     ",
"              # $ % & * .   . . .                           ",
"              = - ; > , ' ) ! ~ { ] ^ / ( _ : .             ",
"        < [ } | 1 2 3 4 5 6 7 8 9 0 a b c d e f g           ",
"      h i j k l m n o p q r s t u v w x y z A B C           ",
"      D E F G H I J K L M N O P Q R S T U V W X .           ",
"  Y Z `  ...+.@.#.$.%.&.*.=.-.;.>.,.'.).!.~.{.].^..         ",
"/.(._.:.(.<.[.}.|.1.2.3.4.5.6.7.8.9.0.a.b.c.d.e.f.g..       ",
"h.i.j.k.l.m.n.o.p.q.r.s.t.u.v.w.x.y.z.A.B.C.D.E.F.G.H.      ",
"I.J.K.t L.M.N.O.P.Q.R.S.T.U.V.W.X.Y.Z.`. +.+++@+#+$+%+.     ",
"&+*+=+-+;+>+,+'+)+!+~+{+]+^+/+(+_+:+<+[+}+|+1+2+3+4+5+6+    ",
" .7+8+9+0+a+b+c+d+e+f+g+h+i+j+k+l+m+n+o+p+q+r+s+t+u+v+w+    ",
"x+y+z+A+B+C+D+E+F+G+H+I+J+K+L+M+N+O+P+Q+R+S+T+U+V+W+X+Y+.   ",
"Z+`+ @.@+@@@#@$@%@&@*@=@-@;@>@,@'@)@!@~@{@]@^@/@(@_@:@<@[@  ",
"}@|@1@2@F 3@4@5@6@)+7@H+8@9@0@a@b@c@d@e@f@g@h@i@j@k@l@m@n@. ",
". o@p@q@r@s@t@u@v@w@x@y@%.z@A@B@C@D@E@F@G@H@I@J@K@L@M@N@O@. ",
"P@Q@R@S@T@U@V@W@X@Y@Z@`@ #.#+#@###$#%#&#*#=#-#;#>#,#'#)#!#. ",
"Q@~#{#Q.]#^#/#(#_#:#<#[#}#|#1#2#3#4#5#6#7#8#9#0#3@+.a#b#c#d#",
"e#f#g#h#i#j#k#l#m#n#o#p#q#r#s#t#u#v#w#x#y#z#A#]@B#C#D#E#F#G#",
"H#I#J#K#L#M#N#O#P#Q#R#S#T#U#V#W#X#Y#Z#`# $z .$+$@$#$$$%$&$*$",
"=$-$;$>$,$'$)$!$)+~${$]$^$/$($_$:$<$[$}$|$1$2$3$4$5$6$7$8$g.",
"  9$0$a$b$c$d$e$f$g$h$i$j$k$l$m$n$o$p$q$r$s$t$u$v$w$x$y$z$A$",
"  B$C$D$E$F$G$H$I$J$K$L$M$N$O$P$Q$R$S$T$U$V$W$X$Y$Z$`$ %.%+%",
"  @%#%$%%%&%*%=%-%;%>%,%'%g#)%!%~%{%]%^%/%(%w+_%:%<%[%}%|%. ",
"  1%2%3%4%5%6%7%r+8%9%0%a%b%c%d%e%f%g%h%i%j%k%l%m%n%o%. p%q%",
"  r%s%N$t%u%v%w%x%y%z%A%B%C%D%E%F%G%H%I%J%K%L%M%N%O%P%Q%R%R%",
"  S%T%U%V%W%X%Y%Z%`% &.&+&@&#&$&%&&&*&=&-&;&>&,&'&)&!&.     ",
"    ~&. . {&]&^&/&(&_&:&<&[&}&|&1&_&2&3&4&5&6&o%. 7&8&9&    ",
"      0&0&. a&b&c&d&e&f&g&h&i&j&k&l&X$m&n&o&. p&q&r&        ",
"            s&t&u&v&w&x&y&z&A&B&C&D&E&#%F&. . G&H&          ",
"              I&J&K&L&M&N&O&P&Q&R&S&T&U&V&r&                ",
"                W&X&X&X&Y&x&Z&`& *.*X&X&+*                  "};
